<svg width="200" height="31" viewBox="0 0 200 31" fill="none" xmlns="http://www.w3.org/2000/svg">
<mask id="mask0_9649_6" style="mask-type:luminance" maskUnits="userSpaceOnUse" x="0" y="0" width="31" height="31">
<path d="M15.1757 30.3513C23.5569 30.3513 30.3513 23.5569 30.3513 15.1757C30.3513 6.79437 23.5569 0 15.1757 0C6.79437 0 0 6.79437 0 15.1757C0 23.5569 6.79437 30.3513 15.1757 30.3513Z" fill="white"/>
</mask>
<g mask="url(#mask0_9649_6)">
<path d="M30.1731 15.0862C30.23 15.1204 30.3059 15.0749 30.3059 15.0104C30.2186 6.72066 23.4731 0.0281982 15.1682 0.0281982C12.4669 0.0281982 9.93259 0.73766 7.7397 1.97827C7.68279 2.01242 7.68279 2.09588 7.7397 2.13003L30.1769 15.0824L30.1731 15.0862Z" fill="#FC1C49"/>
<path d="M2.1282 7.73616C2.09405 7.67925 2.01058 7.67925 1.97644 7.73616C0.739623 9.93284 0.0263672 12.4672 0.0263672 15.1684C0.0263672 23.4771 6.71883 30.2189 15.0047 30.3062C15.073 30.3062 15.1148 30.2341 15.0806 30.1734L2.1282 7.73616Z" fill="#FC1C49"/>
<path d="M4.92845 4.99091L19.1898 29.6931C19.2087 29.7272 19.2505 29.7424 19.2884 29.7348C24.3305 28.3083 28.3028 24.3399 29.7293 19.294C29.7407 19.256 29.7217 19.2143 29.6875 19.1953L4.98916 4.9302C4.95122 4.90744 4.90948 4.94917 4.93225 4.98711L4.92845 4.99091Z" fill="#FC1C49"/>
</g>
<path d="M44.1461 9.21541V13.7833H51.6315V17.4141H44.1461V24.8463H40.3484V5.58084H51.8553V9.21541H44.1499H44.1461Z" fill="black"/>
<path d="M68.8217 11.0846V24.8451H65.2706V23.2213C64.2804 24.4581 62.7932 25.2321 60.7824 25.2321C57.1213 25.2321 54.0938 22.068 54.0938 17.9667C54.0938 13.8655 57.1213 10.7014 60.7824 10.7014C62.7932 10.7014 64.2804 11.4716 65.2706 12.7122V11.0884H68.8217V11.0846ZM65.2706 17.9667C65.2706 15.6524 63.6468 14.0856 61.4464 14.0856C59.2459 14.0856 57.6486 15.6524 57.6486 17.9667C57.6486 20.281 59.2724 21.8479 61.4464 21.8479C63.6203 21.8479 65.2706 20.2772 65.2706 17.9667Z" fill="black"/>
<path d="M89.8816 14.4999V20.225C89.8816 21.7122 90.9553 21.7387 92.9926 21.6287V24.8497C88.0112 25.3999 86.3305 23.943 86.3305 20.225V14.4999H83.9365V11.0854H86.3305V7.2308H89.8816V11.0854H92.9926V14.4999H89.8816Z" fill="black"/>
<path d="M129.13 11.0846V24.8451H125.579V23.2213C124.589 24.4581 123.102 25.2321 121.091 25.2321C117.43 25.2321 114.402 22.068 114.402 17.9667C114.402 13.8655 117.43 10.7014 121.091 10.7014C123.102 10.7014 124.589 11.4716 125.579 12.7122V11.0884H129.13V11.0846ZM125.579 17.9667C125.579 15.6524 123.955 14.0856 121.755 14.0856C119.554 14.0856 117.957 15.6524 117.957 17.9667C117.957 20.281 119.581 21.8479 121.755 21.8479C123.929 21.8479 125.579 20.2772 125.579 17.9667Z" fill="black"/>
<path d="M152.872 16.3707V24.8463H149.321V16.6173C149.321 14.9935 148.494 14.0033 147.011 14.0033C145.44 14.0033 144.45 15.0504 144.45 17.1143V24.8501H140.899V16.6211C140.899 14.9973 140.072 14.0071 138.584 14.0071C137.097 14.0071 135.997 15.0542 135.997 17.1181V24.8539H132.446V11.0858H135.997V12.5426C136.767 11.3893 138.061 10.6988 139.821 10.6988C141.582 10.6988 142.796 11.4158 143.566 12.6792C144.419 11.4424 145.797 10.6988 147.667 10.6988C150.805 10.6988 152.868 12.9296 152.868 16.3707H152.872Z" fill="black"/>
<path d="M170.916 17.9679C170.916 22.0692 167.888 25.2333 164.201 25.2333C162.19 25.2333 160.733 24.4897 159.743 23.2225V30.3513H156.192V11.0858H159.743V12.7096C160.733 11.4424 162.194 10.6988 164.201 10.6988C167.888 10.6988 170.916 13.8629 170.916 17.9641V17.9679ZM167.365 17.9679C167.365 15.6536 165.741 14.0868 163.54 14.0868C161.34 14.0868 159.743 15.6536 159.743 17.9679C159.743 20.2822 161.367 21.8491 163.54 21.8491C165.714 21.8491 167.365 20.2784 167.365 17.9679Z" fill="black"/>
<path d="M186.232 11.0853V24.8459H182.681V23.3055C181.854 24.5424 180.423 25.2328 178.579 25.2328C175.662 25.2328 173.378 23.1955 173.378 19.5344V11.0853H176.929V19.0943C176.929 20.9647 178.06 21.9283 179.653 21.9283C181.387 21.9283 182.681 20.9116 182.681 18.5138V11.0815H186.232V11.0853Z" fill="black"/>
<path d="M75.491 14.9937C75.491 14.2501 76.2081 13.8669 77.0883 13.8669C77.5322 13.8669 77.9267 13.9731 78.2682 14.159C78.7766 14.4132 79.1901 14.7964 79.4898 15.1644L82.3163 13.6241C81.2426 11.7233 79.3153 10.7066 77.0883 10.7066C74.2542 10.7066 71.8603 12.2773 71.8603 15.0848C71.8603 19.9296 78.9587 18.8256 78.9587 20.8363C78.9587 21.633 78.1885 22.02 77.0617 22.02C76.9062 22.02 76.7582 22.0086 76.614 21.9935C76.2157 21.9479 75.8666 21.8341 75.5593 21.671C74.9447 21.3637 74.4743 20.8856 74.1176 20.3697L71.2798 21.9669C72.27 24.0877 74.3073 25.2411 77.0579 25.2411C80.002 25.2411 82.5894 23.8108 82.5894 20.8363C82.5894 15.7714 75.4872 17.0386 75.4872 15.0013L75.491 14.9937Z" fill="black"/>
<path d="M192.902 14.9937C192.902 14.2501 193.619 13.8669 194.499 13.8669C194.943 13.8669 195.337 13.9731 195.679 14.159C196.187 14.4132 196.601 14.7964 196.9 15.1644L199.727 13.6241C198.653 11.7233 196.726 10.7066 194.499 10.7066C191.665 10.7066 189.271 12.2773 189.271 15.0848C189.271 19.9296 196.369 18.8256 196.369 20.8363C196.369 21.633 195.599 22.02 194.472 22.02C194.317 22.02 194.169 22.0086 194.025 21.9935C193.626 21.9479 193.277 21.8341 192.97 21.671C192.355 21.3637 191.885 20.8856 191.528 20.3697L188.69 21.9669C189.681 24.0877 191.718 25.2411 194.469 25.2411C197.413 25.2411 200 23.8108 200 20.8363C200 15.7714 192.898 17.0386 192.898 15.0013L192.902 14.9937Z" fill="black"/>
<path d="M110.164 19.9699C109.534 21.055 108.38 21.7113 106.98 21.7113C106.961 21.7113 106.946 21.7113 106.927 21.7113C106.908 21.7113 106.889 21.7113 106.87 21.7113C104.75 21.7113 103.183 20.1406 103.183 17.9667C103.183 15.7928 104.753 14.1956 106.87 14.1956C106.893 14.1956 106.912 14.1956 106.935 14.1994C106.95 14.1994 106.965 14.1994 106.98 14.1994C108.384 14.1994 109.537 14.8595 110.167 15.9484L113.062 14.2525C111.935 12.1317 109.594 10.7014 106.897 10.7014C102.712 10.7014 99.6316 13.8655 99.6316 17.9667C99.6316 22.068 102.716 25.2321 106.897 25.2321C109.594 25.2321 111.935 23.8018 113.119 21.6544L110.167 19.9661L110.164 19.9699Z" fill="black"/>
</svg>
